<svg xmlns="http://www.w3.org/2000/svg" xmlns:xlink="http://www.w3.org/1999/xlink" width="500" zoomAndPan="magnify" viewBox="0 0 375 374.999991" height="500" preserveAspectRatio="xMidYMid meet" version="1.0"><defs><g/><clipPath id="79e2316deb"><path d="M 0.878906 32 L 54.640625 32 L 54.640625 47 L 0.878906 47 Z M 0.878906 32 " clip-rule="nonzero"/></clipPath><clipPath id="39a354ae73"><path d="M 0.878906 0.601562 L 54 0.601562 L 54 14.761719 L 0.878906 14.761719 Z M 0.878906 0.601562 " clip-rule="nonzero"/></clipPath><clipPath id="08b1cd0329"><rect x="0" width="55" y="0" height="15"/></clipPath><clipPath id="bcc0ca2a10"><path d="M 7 0.679688 L 22 0.679688 L 22 54 L 7 54 Z M 7 0.679688 " clip-rule="nonzero"/></clipPath><clipPath id="b72b81ca49"><rect x="0" width="55" y="0" height="55"/></clipPath></defs><rect x="-37.5" width="450" fill="#ffffff" y="-37.499999" height="449.999989" fill-opacity="1"/><rect x="-37.5" width="450" fill="#e4e2dd" y="-37.499999" height="449.999989" fill-opacity="1"/><path stroke-linecap="butt" transform="matrix(-0.75, 0, 0, -0.75, 317.832699, 137.549405)" fill="none" stroke-linejoin="miter" d="M 0.000890105 9.498166 L 51.985269 9.498166 " stroke="#8c52ff" stroke-width="19" stroke-opacity="1" stroke-miterlimit="4"/><path stroke-linecap="butt" transform="matrix(0, -0.75, 0.75, 0, 303.705453, 162.41044)" fill="none" stroke-linejoin="miter" d="M 0.00037798 9.502106 L 51.984756 9.502106 " stroke="#8c52ff" stroke-width="19" stroke-opacity="1" stroke-miterlimit="4"/><g transform="matrix(1, 0, 0, 1, 50, 205)"><g clip-path="url(#b72b81ca49)"><g clip-path="url(#79e2316deb)"><g transform="matrix(1, 0, 0, 1, 0, 32)"><g clip-path="url(#08b1cd0329)"><g clip-path="url(#39a354ae73)"><path stroke-linecap="butt" transform="matrix(1.167191, 0, 0, 1.167191, 7.906647, 0.69246)" fill="none" stroke-linejoin="miter" d="M -0.000340559 5.999749 L 33.406524 5.999749 " stroke="#8c52ff" stroke-width="12" stroke-opacity="1" stroke-miterlimit="4"/></g></g></g></g><g clip-path="url(#bcc0ca2a10)"><path stroke-linecap="butt" transform="matrix(0, 1.167191, -1.167191, 0, 21.904514, 7.717095)" fill="none" stroke-linejoin="miter" d="M 0.0014176 5.999165 L 33.404936 5.999165 " stroke="#8c52ff" stroke-width="12" stroke-opacity="1" stroke-miterlimit="4"/></g></g></g><path stroke-linecap="butt" transform="matrix(0, 0.75, -0.75, 0, 72.140697, 123.422159)" fill="none" stroke-linejoin="miter" d="M -0.000378794 9.500097 L 51.989208 9.500097 " stroke="#8c52ff" stroke-width="19" stroke-opacity="1" stroke-miterlimit="4"/><path stroke-linecap="butt" transform="matrix(-0.75, 0, 0, -0.75, 97.001732, 137.549405)" fill="none" stroke-linejoin="miter" d="M 0.00230897 9.498166 L 51.986687 9.498166 " stroke="#8c52ff" stroke-width="19" stroke-opacity="1" stroke-miterlimit="4"/><path stroke-linecap="butt" transform="matrix(0, -0.75, 0.75, 0, 304.926342, 251.699748)" fill="none" stroke-linejoin="miter" d="M 0.000706029 9.499253 L 53.96946 9.499253 " stroke="#8c52ff" stroke-width="19" stroke-opacity="1" stroke-miterlimit="4"/><path stroke-linecap="butt" transform="matrix(0.75, 0, 0, 0.75, 278.844421, 237.30514)" fill="none" stroke-linejoin="miter" d="M -0.000894119 9.499398 L 53.973068 9.499398 " stroke="#8c52ff" stroke-width="19" stroke-opacity="1" stroke-miterlimit="4"/><g fill="#8c52ff" fill-opacity="1"><g transform="translate(85.277349, 210.689165)"><g><path d="M 39.5 -13.453125 C 41.769531 -13.453125 43.972656 -13.796875 46.109375 -14.484375 C 48.242188 -15.171875 49.8125 -15.832031 50.8125 -16.46875 L 52.328125 -17.5 L 58.65625 -4.828125 C 58.445312 -4.671875 58.15625 -4.457031 57.78125 -4.1875 C 57.414062 -3.925781 56.554688 -3.4375 55.203125 -2.71875 C 53.859375 -2.007812 52.421875 -1.390625 50.890625 -0.859375 C 49.367188 -0.335938 47.363281 0.128906 44.875 0.546875 C 42.394531 0.972656 39.835938 1.1875 37.203125 1.1875 C 31.128906 1.1875 25.375 -0.300781 19.9375 -3.28125 C 14.507812 -6.257812 10.132812 -10.363281 6.8125 -15.59375 C 3.488281 -20.820312 1.828125 -26.46875 1.828125 -32.53125 C 1.828125 -37.125 2.800781 -41.53125 4.75 -45.75 C 6.695312 -49.96875 9.296875 -53.582031 12.546875 -56.59375 C 15.796875 -59.601562 19.582031 -62.003906 23.90625 -63.796875 C 28.226562 -65.585938 32.660156 -66.484375 37.203125 -66.484375 C 41.421875 -66.484375 45.3125 -65.984375 48.875 -64.984375 C 52.4375 -63.984375 54.957031 -62.984375 56.4375 -61.984375 L 58.65625 -60.46875 L 52.328125 -47.8125 C 51.953125 -48.125 51.394531 -48.503906 50.65625 -48.953125 C 49.914062 -49.398438 48.4375 -49.992188 46.21875 -50.734375 C 44.007812 -51.472656 41.769531 -51.84375 39.5 -51.84375 C 35.90625 -51.84375 32.679688 -51.257812 29.828125 -50.09375 C 26.984375 -48.9375 24.726562 -47.410156 23.0625 -45.515625 C 21.40625 -43.617188 20.140625 -41.570312 19.265625 -39.375 C 18.398438 -37.1875 17.96875 -34.957031 17.96875 -32.6875 C 17.96875 -27.726562 19.828125 -23.28125 23.546875 -19.34375 C 27.265625 -15.414062 32.582031 -13.453125 39.5 -13.453125 Z M 39.5 -13.453125 "/></g></g></g><g fill="#8c52ff" fill-opacity="1"><g transform="translate(143.055395, 210.689165)"><g><path d="M 8.59375 -4.828125 C 4.082031 -8.835938 1.828125 -13.984375 1.828125 -20.265625 C 1.828125 -26.546875 4.171875 -31.703125 8.859375 -35.734375 C 13.554688 -39.773438 19.363281 -41.796875 26.28125 -41.796875 C 33.082031 -41.796875 38.816406 -39.765625 43.484375 -35.703125 C 48.160156 -31.640625 50.5 -26.492188 50.5 -20.265625 C 50.5 -14.035156 48.21875 -8.898438 43.65625 -4.859375 C 39.09375 -0.828125 33.300781 1.1875 26.28125 1.1875 C 19 1.1875 13.101562 -0.816406 8.59375 -4.828125 Z M 19.421875 -27.140625 C 17.609375 -25.347656 16.703125 -23.050781 16.703125 -20.25 C 16.703125 -17.457031 17.570312 -15.175781 19.3125 -13.40625 C 21.050781 -11.644531 23.347656 -10.765625 26.203125 -10.765625 C 28.941406 -10.765625 31.195312 -11.660156 32.96875 -13.453125 C 34.738281 -15.242188 35.625 -17.515625 35.625 -20.265625 C 35.625 -23.054688 34.710938 -25.347656 32.890625 -27.140625 C 31.066406 -28.941406 28.835938 -29.84375 26.203125 -29.84375 C 23.503906 -29.84375 21.242188 -28.941406 19.421875 -27.140625 Z M 19.421875 -27.140625 "/></g></g></g><g fill="#8c52ff" fill-opacity="1"><g transform="translate(193.551783, 210.689165)"><g><path d="M 4.75 0 L 4.75 -40.609375 L 18.765625 -40.609375 L 18.765625 -34.75 L 18.921875 -34.75 C 19.023438 -34.957031 19.191406 -35.21875 19.421875 -35.53125 C 19.660156 -35.851562 20.175781 -36.410156 20.96875 -37.203125 C 21.757812 -37.992188 22.601562 -38.707031 23.5 -39.34375 C 24.40625 -39.976562 25.566406 -40.546875 26.984375 -41.046875 C 28.410156 -41.546875 29.863281 -41.796875 31.34375 -41.796875 C 32.875 -41.796875 34.378906 -41.582031 35.859375 -41.15625 C 37.335938 -40.738281 38.421875 -40.316406 39.109375 -39.890625 L 40.21875 -39.265625 L 34.359375 -27.390625 C 32.609375 -28.867188 30.179688 -29.609375 27.078125 -29.609375 C 25.378906 -29.609375 23.921875 -29.238281 22.703125 -28.5 C 21.492188 -27.757812 20.640625 -26.859375 20.140625 -25.796875 C 19.640625 -24.742188 19.285156 -23.847656 19.078125 -23.109375 C 18.867188 -22.367188 18.765625 -21.789062 18.765625 -21.375 L 18.765625 0 Z M 4.75 0 "/></g></g></g><g fill="#8c52ff" fill-opacity="1"><g transform="translate(231.146984, 210.689165)"><g><path d="M 45.828125 -18.359375 L 16.390625 -18.359375 C 16.390625 -15.515625 17.3125 -13.40625 19.15625 -12.03125 C 21 -10.65625 23.003906 -9.96875 25.171875 -9.96875 C 27.441406 -9.96875 29.234375 -10.269531 30.546875 -10.875 C 31.867188 -11.488281 33.375 -12.691406 35.0625 -14.484375 L 45.203125 -9.421875 C 40.972656 -2.347656 33.953125 1.1875 24.140625 1.1875 C 18.015625 1.1875 12.765625 -0.910156 8.390625 -5.109375 C 4.015625 -9.304688 1.828125 -14.359375 1.828125 -20.265625 C 1.828125 -26.171875 4.015625 -31.234375 8.390625 -35.453125 C 12.765625 -39.679688 18.015625 -41.796875 24.140625 -41.796875 C 30.578125 -41.796875 35.8125 -39.9375 39.84375 -36.21875 C 43.882812 -32.5 45.90625 -27.179688 45.90625 -20.265625 C 45.90625 -19.316406 45.878906 -18.679688 45.828125 -18.359375 Z M 16.78125 -26.125 L 32.21875 -26.125 C 31.894531 -28.226562 31.0625 -29.847656 29.71875 -30.984375 C 28.375 -32.117188 26.644531 -32.6875 24.53125 -32.6875 C 22.21875 -32.6875 20.375 -32.078125 19 -30.859375 C 17.625 -29.648438 16.882812 -28.070312 16.78125 -26.125 Z M 16.78125 -26.125 "/></g></g></g><g fill="#8c52ff" fill-opacity="1"><g transform="translate(277.052769, 210.689165)"><g><path d="M 13.765625 -16.9375 C 16.304688 -16.9375 18.457031 -16.050781 20.21875 -14.28125 C 21.988281 -12.519531 22.875 -10.375 22.875 -7.84375 C 22.875 -5.351562 21.988281 -3.222656 20.21875 -1.453125 C 18.457031 0.304688 16.304688 1.1875 13.765625 1.1875 C 11.285156 1.1875 9.160156 0.304688 7.390625 -1.453125 C 5.628906 -3.222656 4.75 -5.351562 4.75 -7.84375 C 4.75 -10.375 5.628906 -12.519531 7.390625 -14.28125 C 9.160156 -16.050781 11.285156 -16.9375 13.765625 -16.9375 Z M 13.765625 -16.9375 "/></g></g></g></svg>