<svg xmlns="http://www.w3.org/2000/svg" xmlns:xlink="http://www.w3.org/1999/xlink" width="500" zoomAndPan="magnify" viewBox="0 0 375 374.999991" height="500" preserveAspectRatio="xMidYMid meet" version="1.0"><defs><g/><clipPath id="8bb84f79b4"><path d="M 39 1 L 57 1 L 57 64.800781 L 39 64.800781 Z M 39 1 " clip-rule="nonzero"/></clipPath><clipPath id="2a79f79758"><rect x="0" width="66" y="0" height="65"/></clipPath><clipPath id="ad3a6feda4"><path d="M 0.28125 37 L 64.121094 37 L 64.121094 55 L 0.28125 55 Z M 0.28125 37 " clip-rule="nonzero"/></clipPath><clipPath id="35cc4ac11b"><path d="M 0.28125 1 L 64 1 L 64 17.761719 L 0.28125 17.761719 Z M 0.28125 1 " clip-rule="nonzero"/></clipPath><clipPath id="7e5b234e93"><rect x="0" width="65" y="0" height="18"/></clipPath><clipPath id="de974a1b2d"><path d="M 8 0.0390625 L 26 0.0390625 L 26 63 L 8 63 Z M 8 0.0390625 " clip-rule="nonzero"/></clipPath><clipPath id="9fea67a69d"><rect x="0" width="65" y="0" height="64"/></clipPath><clipPath id="cc3aa0d7d4"><path d="M 9 1 L 27 1 L 27 64.800781 L 9 64.800781 Z M 9 1 " clip-rule="nonzero"/></clipPath><clipPath id="a5e54b5cb1"><rect x="0" width="66" y="0" height="65"/></clipPath><clipPath id="0491338aa5"><path d="M 40 1 L 58 1 L 58 66.640625 L 40 66.640625 Z M 40 1 " clip-rule="nonzero"/></clipPath><clipPath id="d56b140fcc"><path d="M 1 40 L 66.878906 40 L 66.878906 58 L 1 58 Z M 1 40 " clip-rule="nonzero"/></clipPath><clipPath id="2380c84145"><rect x="0" width="67" y="0" height="67"/></clipPath><clipPath id="30e098e24f"><rect x="0" width="260" y="0" height="119"/></clipPath></defs><rect x="-37.5" width="450" fill="#ffffff" y="-37.499999" height="449.999989" fill-opacity="1"/><rect x="-37.5" width="450" fill="#e4e2dd" y="-37.499999" height="449.999989" fill-opacity="1"/><g transform="matrix(1, 0, 0, 1, 290, 102)"><g clip-path="url(#2a79f79758)"><path stroke-linecap="butt" transform="matrix(-0.889909, 0, 0, -0.889909, 56.076526, 26.231344)" fill="none" stroke-linejoin="miter" d="M -0.00179707 9.499848 L 51.987364 9.499848 " stroke="#8c52ff" stroke-width="19" stroke-opacity="1" stroke-miterlimit="4"/><g clip-path="url(#8bb84f79b4)"><path stroke-linecap="butt" transform="matrix(0, -0.889909, 0.889909, 0, 39.313879, 55.730087)" fill="none" stroke-linejoin="miter" d="M -0.000428704 9.501704 L 51.988733 9.501704 " stroke="#8c52ff" stroke-width="19" stroke-opacity="1" stroke-miterlimit="4"/></g></g></g><g transform="matrix(1, 0, 0, 1, 29, 209)"><g clip-path="url(#9fea67a69d)"><g clip-path="url(#ad3a6feda4)"><g transform="matrix(1, 0, 0, 1, 0, 37)"><g clip-path="url(#7e5b234e93)"><g clip-path="url(#35cc4ac11b)"><path stroke-linecap="butt" transform="matrix(1.384925, 0, 0, 1.384925, 8.654983, 1.048197)" fill="none" stroke-linejoin="miter" d="M 0.000915207 6.001176 L 33.40469 6.001176 " stroke="#8c52ff" stroke-width="12" stroke-opacity="1" stroke-miterlimit="4"/></g></g></g></g><g clip-path="url(#de974a1b2d)"><path stroke-linecap="butt" transform="matrix(0, 1.384925, -1.384925, 0, 25.26409, 8.413794)" fill="none" stroke-linejoin="miter" d="M 0.000193669 6.001022 L 33.403968 6.001022 " stroke="#8c52ff" stroke-width="12" stroke-opacity="1" stroke-miterlimit="4"/></g></g></g><g transform="matrix(1, 0, 0, 1, 28, 102)"><g clip-path="url(#a5e54b5cb1)"><g clip-path="url(#cc3aa0d7d4)"><path stroke-linecap="butt" transform="matrix(0, 0.889909, -0.889909, 0, 26.551793, 9.468728)" fill="none" stroke-linejoin="miter" d="M 0.0000246764 9.500001 L 51.984797 9.500001 " stroke="#8c52ff" stroke-width="19" stroke-opacity="1" stroke-miterlimit="4"/></g><path stroke-linecap="butt" transform="matrix(-0.889909, 0, 0, -0.889909, 56.050536, 26.231344)" fill="none" stroke-linejoin="miter" d="M -0.000275836 9.499848 L 51.988886 9.499848 " stroke="#8c52ff" stroke-width="19" stroke-opacity="1" stroke-miterlimit="4"/></g></g><g transform="matrix(1, 0, 0, 1, 290, 206)"><g clip-path="url(#2380c84145)"><g clip-path="url(#0491338aa5)"><path stroke-linecap="butt" transform="matrix(0, -0.889909, 0.889909, 0, 40.762551, 57.675959)" fill="none" stroke-linejoin="miter" d="M 0.000199386 9.497929 L 53.969022 9.497929 " stroke="#8c52ff" stroke-width="19" stroke-opacity="1" stroke-miterlimit="4"/></g><g clip-path="url(#d56b140fcc)"><path stroke-linecap="butt" transform="matrix(0.889909, 0, 0, 0.889909, 9.815151, 40.596087)" fill="none" stroke-linejoin="miter" d="M 0.00141084 9.500627 L 53.970234 9.500627 " stroke="#8c52ff" stroke-width="19" stroke-opacity="1" stroke-miterlimit="4"/></g></g></g><g transform="matrix(1, 0, 0, 1, 69, 130)"><g clip-path="url(#30e098e24f)"><g fill="#8c52ff" fill-opacity="1"><g transform="translate(1.139029, 85.015041)"><g><path d="M 46.859375 -15.96875 C 49.554688 -15.96875 52.171875 -16.375 54.703125 -17.1875 C 57.242188 -18 59.109375 -18.78125 60.296875 -19.53125 L 62.078125 -20.75 L 69.59375 -5.734375 C 69.34375 -5.546875 69 -5.296875 68.5625 -4.984375 C 68.125 -4.671875 67.101562 -4.085938 65.5 -3.234375 C 63.90625 -2.390625 62.203125 -1.65625 60.390625 -1.03125 C 58.578125 -0.40625 56.195312 0.15625 53.25 0.65625 C 50.3125 1.15625 47.273438 1.40625 44.140625 1.40625 C 36.941406 1.40625 30.117188 -0.359375 23.671875 -3.890625 C 17.222656 -7.429688 12.023438 -12.300781 8.078125 -18.5 C 4.128906 -24.695312 2.15625 -31.398438 2.15625 -38.609375 C 2.15625 -44.046875 3.3125 -49.269531 5.625 -54.28125 C 7.945312 -59.289062 11.03125 -63.578125 14.875 -67.140625 C 18.726562 -70.710938 23.222656 -73.5625 28.359375 -75.6875 C 33.492188 -77.820312 38.753906 -78.890625 44.140625 -78.890625 C 49.148438 -78.890625 53.769531 -78.296875 58 -77.109375 C 62.226562 -75.921875 65.21875 -74.734375 66.96875 -73.546875 L 69.59375 -71.75 L 62.078125 -56.734375 C 61.640625 -57.109375 60.984375 -57.5625 60.109375 -58.09375 C 59.234375 -58.625 57.476562 -59.328125 54.84375 -60.203125 C 52.21875 -61.078125 49.554688 -61.515625 46.859375 -61.515625 C 42.609375 -61.515625 38.789062 -60.828125 35.40625 -59.453125 C 32.03125 -58.078125 29.351562 -56.257812 27.375 -54 C 25.40625 -51.75 23.898438 -49.320312 22.859375 -46.71875 C 21.828125 -44.125 21.3125 -41.484375 21.3125 -38.796875 C 21.3125 -32.910156 23.519531 -27.632812 27.9375 -22.96875 C 32.351562 -18.300781 38.660156 -15.96875 46.859375 -15.96875 Z M 46.859375 -15.96875 "/></g></g></g><g fill="#8c52ff" fill-opacity="1"><g transform="translate(69.695307, 85.015041)"><g><path d="M 10.1875 -5.734375 C 4.832031 -10.492188 2.15625 -16.597656 2.15625 -24.046875 C 2.15625 -31.492188 4.941406 -37.613281 10.515625 -42.40625 C 16.085938 -47.195312 22.976562 -49.59375 31.1875 -49.59375 C 39.257812 -49.59375 46.066406 -47.179688 51.609375 -42.359375 C 57.148438 -37.535156 59.921875 -31.429688 59.921875 -24.046875 C 59.921875 -16.660156 57.210938 -10.570312 51.796875 -5.78125 C 46.378906 -0.988281 39.507812 1.40625 31.1875 1.40625 C 22.539062 1.40625 15.539062 -0.972656 10.1875 -5.734375 Z M 23.046875 -32.203125 C 20.890625 -30.078125 19.8125 -27.351562 19.8125 -24.03125 C 19.8125 -20.71875 20.84375 -18.007812 22.90625 -15.90625 C 24.976562 -13.8125 27.707031 -12.765625 31.09375 -12.765625 C 34.34375 -12.765625 37.015625 -13.828125 39.109375 -15.953125 C 41.210938 -18.085938 42.265625 -20.785156 42.265625 -24.046875 C 42.265625 -27.359375 41.179688 -30.078125 39.015625 -32.203125 C 36.859375 -34.335938 34.21875 -35.40625 31.09375 -35.40625 C 27.894531 -35.40625 25.210938 -34.335938 23.046875 -32.203125 Z M 23.046875 -32.203125 "/></g></g></g><g fill="#8c52ff" fill-opacity="1"><g transform="translate(129.611568, 85.015041)"><g><path d="M 5.640625 0 L 5.640625 -48.1875 L 22.265625 -48.1875 L 22.265625 -41.234375 L 22.453125 -41.234375 C 22.578125 -41.484375 22.78125 -41.796875 23.0625 -42.171875 C 23.34375 -42.546875 23.953125 -43.203125 24.890625 -44.140625 C 25.828125 -45.078125 26.828125 -45.921875 27.890625 -46.671875 C 28.953125 -47.429688 30.328125 -48.109375 32.015625 -48.703125 C 33.710938 -49.296875 35.4375 -49.59375 37.1875 -49.59375 C 39.007812 -49.59375 40.796875 -49.34375 42.546875 -48.84375 C 44.296875 -48.34375 45.578125 -47.84375 46.390625 -47.34375 L 47.71875 -46.578125 L 40.765625 -32.5 C 38.691406 -34.25 35.8125 -35.125 32.125 -35.125 C 30.113281 -35.125 28.390625 -34.6875 26.953125 -33.8125 C 25.515625 -32.9375 24.5 -31.867188 23.90625 -30.609375 C 23.3125 -29.359375 22.890625 -28.296875 22.640625 -27.421875 C 22.390625 -26.546875 22.265625 -25.859375 22.265625 -25.359375 L 22.265625 0 Z M 5.640625 0 "/></g></g></g><g fill="#8c52ff" fill-opacity="1"><g transform="translate(174.219983, 85.015041)"><g><path d="M 54.375 -21.796875 L 19.4375 -21.796875 C 19.4375 -18.410156 20.53125 -15.898438 22.71875 -14.265625 C 24.914062 -12.640625 27.296875 -11.828125 29.859375 -11.828125 C 32.554688 -11.828125 34.6875 -12.1875 36.25 -12.90625 C 37.820312 -13.632812 39.609375 -15.0625 41.609375 -17.1875 L 53.625 -11.171875 C 48.613281 -2.785156 40.285156 1.40625 28.640625 1.40625 C 21.378906 1.40625 15.148438 -1.082031 9.953125 -6.0625 C 4.753906 -11.039062 2.15625 -17.035156 2.15625 -24.046875 C 2.15625 -31.054688 4.753906 -37.066406 9.953125 -42.078125 C 15.148438 -47.085938 21.378906 -49.59375 28.640625 -49.59375 C 36.285156 -49.59375 42.5 -47.382812 47.28125 -42.96875 C 52.070312 -38.550781 54.46875 -32.242188 54.46875 -24.046875 C 54.46875 -22.921875 54.4375 -22.171875 54.375 -21.796875 Z M 19.90625 -31 L 38.21875 -31 C 37.84375 -33.5 36.859375 -35.421875 35.265625 -36.765625 C 33.671875 -38.117188 31.617188 -38.796875 29.109375 -38.796875 C 26.359375 -38.796875 24.164062 -38.070312 22.53125 -36.625 C 20.90625 -35.1875 20.03125 -33.3125 19.90625 -31 Z M 19.90625 -31 "/></g></g></g><g fill="#8c52ff" fill-opacity="1"><g transform="translate(228.689285, 85.015041)"><g><path d="M 16.34375 -20.09375 C 19.34375 -20.09375 21.890625 -19.046875 23.984375 -16.953125 C 26.085938 -14.859375 27.140625 -12.304688 27.140625 -9.296875 C 27.140625 -6.359375 26.085938 -3.835938 23.984375 -1.734375 C 21.890625 0.359375 19.34375 1.40625 16.34375 1.40625 C 13.394531 1.40625 10.875 0.359375 8.78125 -1.734375 C 6.6875 -3.835938 5.640625 -6.359375 5.640625 -9.296875 C 5.640625 -12.304688 6.6875 -14.859375 8.78125 -16.953125 C 10.875 -19.046875 13.394531 -20.09375 16.34375 -20.09375 Z M 16.34375 -20.09375 "/></g></g></g></g></g></svg>