<svg xmlns="http://www.w3.org/2000/svg" xmlns:xlink="http://www.w3.org/1999/xlink" width="500" zoomAndPan="magnify" viewBox="0 0 375 374.999991" height="500" preserveAspectRatio="xMidYMid meet" version="1.0"><defs><g/><clipPath id="eab476b270"><path d="M 1 9 L 64.761719 9 L 64.761719 27 L 1 27 Z M 1 9 " clip-rule="nonzero"/></clipPath><clipPath id="49004e0063"><path d="M 39 1 L 56 1 L 56 64.519531 L 39 64.519531 Z M 39 1 " clip-rule="nonzero"/></clipPath><clipPath id="d074b2d9ef"><rect x="0" width="65" y="0" height="65"/></clipPath><clipPath id="65480817f1"><path d="M 0.28125 38 L 63.878906 38 L 63.878906 56 L 0.28125 56 Z M 0.28125 38 " clip-rule="nonzero"/></clipPath><clipPath id="761c9045ef"><path d="M 0.28125 0.441406 L 63.878906 0.441406 L 63.878906 17.238281 L 0.28125 17.238281 Z M 0.28125 0.441406 " clip-rule="nonzero"/></clipPath><clipPath id="dc6ef30024"><rect x="0" width="64" y="0" height="18"/></clipPath><clipPath id="6ad89be46b"><path d="M 8 0.761719 L 26 0.761719 L 26 64 L 8 64 Z M 8 0.761719 " clip-rule="nonzero"/></clipPath><clipPath id="dc37edd580"><rect x="0" width="64" y="0" height="65"/></clipPath><clipPath id="0e756236eb"><path d="M 9 1 L 27 1 L 27 64.519531 L 9 64.519531 Z M 9 1 " clip-rule="nonzero"/></clipPath><clipPath id="1c1dcd43bf"><path d="M 1 9 L 64.640625 9 L 64.640625 27 L 1 27 Z M 1 9 " clip-rule="nonzero"/></clipPath><clipPath id="29fcd34a9e"><rect x="0" width="65" y="0" height="65"/></clipPath><clipPath id="ccec447c79"><path d="M 40 0.359375 L 58 0.359375 L 58 66 L 40 66 Z M 40 0.359375 " clip-rule="nonzero"/></clipPath><clipPath id="1e44054052"><rect x="0" width="67" y="0" height="67"/></clipPath><clipPath id="9bbb1271b5"><rect x="0" width="259" y="0" height="118"/></clipPath></defs><rect x="-37.5" width="450" fill="#ffffff" y="-37.499999" height="449.999989" fill-opacity="1"/><rect x="-37.5" width="450" fill="#8c52ff" y="-37.499999" height="449.999989" fill-opacity="1"/><g transform="matrix(1, 0, 0, 1, 289, 97)"><g clip-path="url(#d074b2d9ef)"><g clip-path="url(#eab476b270)"><path stroke-linecap="butt" transform="matrix(-0.88625, 0, 0, -0.88625, 55.807795, 26.217961)" fill="none" stroke-linejoin="miter" d="M -0.000901656 9.501929 L 51.986927 9.501929 " stroke="#e4e2dd" stroke-width="19" stroke-opacity="1" stroke-miterlimit="4"/></g><g clip-path="url(#49004e0063)"><path stroke-linecap="butt" transform="matrix(0, -0.88625, 0.88625, 0, 39.114085, 55.595429)" fill="none" stroke-linejoin="miter" d="M 0.0018947 9.501913 L 51.985316 9.501913 " stroke="#e4e2dd" stroke-width="19" stroke-opacity="1" stroke-miterlimit="4"/></g></g></g><g transform="matrix(1, 0, 0, 1, 29, 203)"><g clip-path="url(#dc37edd580)"><g clip-path="url(#65480817f1)"><g transform="matrix(1, 0, 0, 1, 0, 38)"><g clip-path="url(#dc6ef30024)"><g clip-path="url(#761c9045ef)"><path stroke-linecap="butt" transform="matrix(1.379231, 0, 0, 1.379231, 8.657011, 0.548939)" fill="none" stroke-linejoin="miter" d="M -0.000551922 5.999924 L 33.405184 5.999924 " stroke="#e4e2dd" stroke-width="12" stroke-opacity="1" stroke-miterlimit="4"/></g></g></g></g><g clip-path="url(#6ad89be46b)"><path stroke-linecap="butt" transform="matrix(0, 1.379231, -1.379231, 0, 25.197828, 9.036382)" fill="none" stroke-linejoin="miter" d="M -0.000889065 6.000412 L 33.404847 6.000412 " stroke="#e4e2dd" stroke-width="12" stroke-opacity="1" stroke-miterlimit="4"/></g></g></g><g transform="matrix(1, 0, 0, 1, 28, 97)"><g clip-path="url(#29fcd34a9e)"><g clip-path="url(#0e756236eb)"><path stroke-linecap="butt" transform="matrix(0, 0.88625, -0.88625, 0, 26.337691, 9.524265)" fill="none" stroke-linejoin="miter" d="M -0.000934166 9.500391 L 51.986895 9.500391 " stroke="#e4e2dd" stroke-width="19" stroke-opacity="1" stroke-miterlimit="4"/></g><g clip-path="url(#1c1dcd43bf)"><path stroke-linecap="butt" transform="matrix(-0.88625, 0, 0, -0.88625, 55.715145, 26.217961)" fill="none" stroke-linejoin="miter" d="M 0.00034037 9.501929 L 51.988169 9.501929 " stroke="#e4e2dd" stroke-width="19" stroke-opacity="1" stroke-miterlimit="4"/></g></g></g><g transform="matrix(1, 0, 0, 1, 289, 201)"><g clip-path="url(#1e44054052)"><g clip-path="url(#ccec447c79)"><path stroke-linecap="butt" transform="matrix(0, -0.88625, 0.88625, 0, 40.55678, 57.105657)" fill="none" stroke-linejoin="miter" d="M 0.000212921 9.500459 L 53.971469 9.500459 " stroke="#e4e2dd" stroke-width="19" stroke-opacity="1" stroke-miterlimit="4"/></g><path stroke-linecap="butt" transform="matrix(0.88625, 0, 0, 0.88625, 9.736616, 40.096009)" fill="none" stroke-linejoin="miter" d="M 0.00187925 9.50027 L 53.968725 9.50027 " stroke="#e4e2dd" stroke-width="19" stroke-opacity="1" stroke-miterlimit="4"/></g></g><g transform="matrix(1, 0, 0, 1, 69, 126)"><g clip-path="url(#9bbb1271b5)"><g fill="#e4e2dd" fill-opacity="1"><g transform="translate(1.004833, 84.531094)"><g><path d="M 46.671875 -15.90625 C 49.347656 -15.90625 51.945312 -16.304688 54.46875 -17.109375 C 57 -17.921875 58.859375 -18.703125 60.046875 -19.453125 L 61.828125 -20.671875 L 69.3125 -5.703125 C 69.0625 -5.515625 68.71875 -5.265625 68.28125 -4.953125 C 67.84375 -4.640625 66.828125 -4.0625 65.234375 -3.21875 C 63.648438 -2.382812 61.953125 -1.65625 60.140625 -1.03125 C 58.328125 -0.40625 55.957031 0.15625 53.03125 0.65625 C 50.101562 1.15625 47.078125 1.40625 43.953125 1.40625 C 36.785156 1.40625 29.988281 -0.351562 23.5625 -3.875 C 17.144531 -7.40625 11.972656 -12.253906 8.046875 -18.421875 C 4.117188 -24.597656 2.15625 -31.269531 2.15625 -38.4375 C 2.15625 -43.863281 3.304688 -49.070312 5.609375 -54.0625 C 7.921875 -59.050781 10.992188 -63.320312 14.828125 -66.875 C 18.660156 -70.425781 23.132812 -73.257812 28.25 -75.375 C 33.363281 -77.5 38.597656 -78.5625 43.953125 -78.5625 C 48.941406 -78.5625 53.539062 -77.96875 57.75 -76.78125 C 61.957031 -75.601562 64.9375 -74.421875 66.6875 -73.234375 L 69.3125 -71.453125 L 61.828125 -56.5 C 61.390625 -56.863281 60.734375 -57.3125 59.859375 -57.84375 C 58.984375 -58.375 57.234375 -59.078125 54.609375 -59.953125 C 51.992188 -60.828125 49.347656 -61.265625 46.671875 -61.265625 C 42.429688 -61.265625 38.625 -60.578125 35.25 -59.203125 C 31.882812 -57.828125 29.21875 -56.015625 27.25 -53.765625 C 25.289062 -51.523438 23.796875 -49.113281 22.765625 -46.53125 C 21.742188 -43.945312 21.234375 -41.3125 21.234375 -38.625 C 21.234375 -32.769531 23.429688 -27.519531 27.828125 -22.875 C 32.222656 -18.226562 38.503906 -15.90625 46.671875 -15.90625 Z M 46.671875 -15.90625 "/></g></g></g><g fill="#e4e2dd" fill-opacity="1"><g transform="translate(69.27924, 84.531094)"><g><path d="M 10.140625 -5.703125 C 4.816406 -10.441406 2.15625 -16.519531 2.15625 -23.9375 C 2.15625 -31.363281 4.925781 -37.460938 10.46875 -42.234375 C 16.019531 -47.003906 22.878906 -49.390625 31.046875 -49.390625 C 39.097656 -49.390625 45.878906 -46.988281 51.390625 -42.1875 C 56.910156 -37.382812 59.671875 -31.300781 59.671875 -23.9375 C 59.671875 -16.582031 56.972656 -10.519531 51.578125 -5.75 C 46.179688 -0.976562 39.335938 1.40625 31.046875 1.40625 C 22.441406 1.40625 15.472656 -0.960938 10.140625 -5.703125 Z M 22.953125 -32.078125 C 20.804688 -29.960938 19.734375 -27.25 19.734375 -23.9375 C 19.734375 -20.632812 20.757812 -17.9375 22.8125 -15.84375 C 24.875 -13.757812 27.585938 -12.71875 30.953125 -12.71875 C 34.203125 -12.71875 36.867188 -13.773438 38.953125 -15.890625 C 41.046875 -18.015625 42.09375 -20.695312 42.09375 -23.9375 C 42.09375 -27.25 41.015625 -29.960938 38.859375 -32.078125 C 36.710938 -34.203125 34.078125 -35.265625 30.953125 -35.265625 C 27.773438 -35.265625 25.109375 -34.203125 22.953125 -32.078125 Z M 22.953125 -32.078125 "/></g></g></g><g fill="#e4e2dd" fill-opacity="1"><g transform="translate(128.949152, 84.531094)"><g><path d="M 5.609375 0 L 5.609375 -47.984375 L 22.171875 -47.984375 L 22.171875 -41.0625 L 22.359375 -41.0625 C 22.484375 -41.3125 22.679688 -41.625 22.953125 -42 C 23.234375 -42.375 23.84375 -43.023438 24.78125 -43.953125 C 25.71875 -44.890625 26.71875 -45.734375 27.78125 -46.484375 C 28.84375 -47.234375 30.210938 -47.90625 31.890625 -48.5 C 33.578125 -49.09375 35.289062 -49.390625 37.03125 -49.390625 C 38.84375 -49.390625 40.617188 -49.140625 42.359375 -48.640625 C 44.109375 -48.140625 45.390625 -47.640625 46.203125 -47.140625 L 47.515625 -46.390625 L 40.59375 -32.359375 C 38.53125 -34.109375 35.660156 -34.984375 31.984375 -34.984375 C 29.992188 -34.984375 28.28125 -34.546875 26.84375 -33.671875 C 25.40625 -32.796875 24.390625 -31.734375 23.796875 -30.484375 C 23.210938 -29.242188 22.796875 -28.1875 22.546875 -27.3125 C 22.296875 -26.4375 22.171875 -25.75 22.171875 -25.25 L 22.171875 0 Z M 5.609375 0 "/></g></g></g><g fill="#e4e2dd" fill-opacity="1"><g transform="translate(173.374159, 84.531094)"><g><path d="M 54.15625 -21.703125 L 19.359375 -21.703125 C 19.359375 -18.335938 20.445312 -15.84375 22.625 -14.21875 C 24.8125 -12.59375 27.1875 -11.78125 29.75 -11.78125 C 32.425781 -11.78125 34.539062 -12.140625 36.09375 -12.859375 C 37.65625 -13.578125 39.4375 -14.992188 41.4375 -17.109375 L 53.40625 -11.125 C 48.414062 -2.769531 40.125 1.40625 28.53125 1.40625 C 21.289062 1.40625 15.082031 -1.070312 9.90625 -6.03125 C 4.738281 -10.988281 2.15625 -16.957031 2.15625 -23.9375 C 2.15625 -30.925781 4.738281 -36.914062 9.90625 -41.90625 C 15.082031 -46.894531 21.289062 -49.390625 28.53125 -49.390625 C 36.132812 -49.390625 42.320312 -47.191406 47.09375 -42.796875 C 51.863281 -38.398438 54.25 -32.113281 54.25 -23.9375 C 54.25 -22.820312 54.21875 -22.078125 54.15625 -21.703125 Z M 19.828125 -30.859375 L 38.0625 -30.859375 C 37.6875 -33.359375 36.703125 -35.273438 35.109375 -36.609375 C 33.523438 -37.953125 31.488281 -38.625 29 -38.625 C 26.25 -38.625 24.0625 -37.90625 22.4375 -36.46875 C 20.820312 -35.039062 19.953125 -33.171875 19.828125 -30.859375 Z M 19.828125 -30.859375 "/></g></g></g><g fill="#e4e2dd" fill-opacity="1"><g transform="translate(227.619508, 84.531094)"><g><path d="M 16.28125 -20.015625 C 19.269531 -20.015625 21.804688 -18.96875 23.890625 -16.875 C 25.984375 -14.789062 27.03125 -12.253906 27.03125 -9.265625 C 27.03125 -6.328125 25.984375 -3.8125 23.890625 -1.71875 C 21.804688 0.363281 19.269531 1.40625 16.28125 1.40625 C 13.34375 1.40625 10.828125 0.363281 8.734375 -1.71875 C 6.648438 -3.8125 5.609375 -6.328125 5.609375 -9.265625 C 5.609375 -12.253906 6.648438 -14.789062 8.734375 -16.875 C 10.828125 -18.96875 13.34375 -20.015625 16.28125 -20.015625 Z M 16.28125 -20.015625 "/></g></g></g></g></g></svg>